<svg xmlns="http://www.w3.org/2000/svg" xmlns:xlink="http://www.w3.org/1999/xlink" width="979" zoomAndPan="magnify" viewBox="0 0 734.25 116.999995" height="156" preserveAspectRatio="xMidYMid meet" version="1.0"><defs><g/></defs><g fill="#333333" fill-opacity="1"><g transform="translate(75.385886, 110.068696)"><g><path d="M 91.234375 -72.75 C 91.234375 -66.53125 89.804688 -60.847656 86.953125 -55.703125 C 84.109375 -50.554688 79.726562 -46.40625 73.8125 -43.25 C 67.90625 -40.09375 60.570312 -38.515625 51.8125 -38.515625 L 35.609375 -38.515625 L 35.609375 0 L 9.46875 0 L 9.46875 -107.28125 L 51.8125 -107.28125 C 60.363281 -107.28125 67.59375 -105.800781 73.5 -102.84375 C 79.414062 -99.894531 83.847656 -95.820312 86.796875 -90.625 C 89.753906 -85.425781 91.234375 -79.46875 91.234375 -72.75 Z M 49.828125 -59.296875 C 54.816406 -59.296875 58.53125 -60.46875 60.96875 -62.8125 C 63.414062 -65.15625 64.640625 -68.46875 64.640625 -72.75 C 64.640625 -77.03125 63.414062 -80.335938 60.96875 -82.671875 C 58.53125 -85.015625 54.816406 -86.1875 49.828125 -86.1875 L 35.609375 -86.1875 L 35.609375 -59.296875 Z M 49.828125 -59.296875 "/></g></g></g><g fill="#333333" fill-opacity="1"><g transform="translate(170.753806, 110.068696)"><g><path d="M 49.671875 -107.28125 C 60.984375 -107.28125 70.863281 -105.039062 79.3125 -100.5625 C 87.769531 -96.082031 94.316406 -89.789062 98.953125 -81.6875 C 103.585938 -73.582031 105.90625 -64.234375 105.90625 -53.640625 C 105.90625 -43.148438 103.585938 -33.828125 98.953125 -25.671875 C 94.316406 -17.523438 87.742188 -11.207031 79.234375 -6.71875 C 70.734375 -2.238281 60.878906 0 49.671875 0 L 9.46875 0 L 9.46875 -107.28125 Z M 47.984375 -22.625 C 57.867188 -22.625 65.5625 -25.320312 71.0625 -30.71875 C 76.5625 -36.113281 79.3125 -43.753906 79.3125 -53.640625 C 79.3125 -63.523438 76.5625 -71.21875 71.0625 -76.71875 C 65.5625 -82.21875 57.867188 -84.96875 47.984375 -84.96875 L 35.609375 -84.96875 L 35.609375 -22.625 Z M 47.984375 -22.625 "/></g></g></g><g fill="#000000" fill-opacity="1"><g transform="translate(281.867972, 110.068696)"><g/></g></g><g fill="#0984e3" fill-opacity="1"><g transform="translate(314.273134, 110.068696)"><g><path d="M 48.296875 1.0625 C 40.453125 1.0625 33.421875 -0.207031 27.203125 -2.75 C 20.984375 -5.300781 16.015625 -9.070312 12.296875 -14.0625 C 8.578125 -19.050781 6.617188 -25.0625 6.421875 -32.09375 L 34.234375 -32.09375 C 34.640625 -28.125 36.015625 -25.09375 38.359375 -23 C 40.703125 -20.914062 43.757812 -19.875 47.53125 -19.875 C 51.40625 -19.875 54.460938 -20.765625 56.703125 -22.546875 C 58.941406 -24.328125 60.0625 -26.796875 60.0625 -29.953125 C 60.0625 -32.597656 59.171875 -34.785156 57.390625 -36.515625 C 55.609375 -38.253906 53.414062 -39.679688 50.8125 -40.796875 C 48.21875 -41.921875 44.523438 -43.195312 39.734375 -44.625 C 32.804688 -46.757812 27.148438 -48.894531 22.765625 -51.03125 C 18.390625 -53.175781 14.617188 -56.335938 11.453125 -60.515625 C 8.296875 -64.691406 6.71875 -70.144531 6.71875 -76.875 C 6.71875 -86.851562 10.332031 -94.671875 17.5625 -100.328125 C 24.800781 -105.984375 34.226562 -108.8125 45.84375 -108.8125 C 57.664062 -108.8125 67.191406 -105.984375 74.421875 -100.328125 C 81.660156 -94.671875 85.535156 -86.800781 86.046875 -76.71875 L 57.765625 -76.71875 C 57.566406 -80.1875 56.296875 -82.910156 53.953125 -84.890625 C 51.609375 -86.878906 48.601562 -87.875 44.9375 -87.875 C 41.769531 -87.875 39.21875 -87.03125 37.28125 -85.34375 C 35.351562 -83.664062 34.390625 -81.25 34.390625 -78.09375 C 34.390625 -74.632812 36.019531 -71.9375 39.28125 -70 C 42.539062 -68.0625 47.632812 -65.972656 54.5625 -63.734375 C 61.488281 -61.390625 67.113281 -59.144531 71.4375 -57 C 75.769531 -54.863281 79.515625 -51.753906 82.671875 -47.671875 C 85.835938 -43.597656 87.421875 -38.351562 87.421875 -31.9375 C 87.421875 -25.820312 85.863281 -20.269531 82.75 -15.28125 C 79.644531 -10.289062 75.132812 -6.316406 69.21875 -3.359375 C 63.3125 -0.410156 56.335938 1.0625 48.296875 1.0625 Z M 48.296875 1.0625 "/></g></g></g><g fill="#0984e3" fill-opacity="1"><g transform="translate(408.265556, 110.068696)"><g><path d="M 102.390625 -107.28125 L 102.390625 0 L 76.265625 0 L 76.265625 -44.171875 L 35.609375 -44.171875 L 35.609375 0 L 9.46875 0 L 9.46875 -107.28125 L 35.609375 -107.28125 L 35.609375 -65.25 L 76.265625 -65.25 L 76.265625 -107.28125 Z M 102.390625 -107.28125 "/></g></g></g><g fill="#0984e3" fill-opacity="1"><g transform="translate(519.986639, 110.068696)"><g><path d="M 60.21875 1.0625 C 50.125 1.0625 40.875 -1.273438 32.46875 -5.953125 C 24.070312 -10.640625 17.398438 -17.1875 12.453125 -25.59375 C 7.515625 -34 5.046875 -43.453125 5.046875 -53.953125 C 5.046875 -64.441406 7.515625 -73.863281 12.453125 -82.21875 C 17.398438 -90.570312 24.070312 -97.09375 32.46875 -101.78125 C 40.875 -106.46875 50.125 -108.8125 60.21875 -108.8125 C 70.300781 -108.8125 79.546875 -106.46875 87.953125 -101.78125 C 96.359375 -97.09375 102.976562 -90.570312 107.8125 -82.21875 C 112.65625 -73.863281 115.078125 -64.441406 115.078125 -53.953125 C 115.078125 -43.453125 112.628906 -34 107.734375 -25.59375 C 102.847656 -17.1875 96.226562 -10.640625 87.875 -5.953125 C 79.519531 -1.273438 70.300781 1.0625 60.21875 1.0625 Z M 60.21875 -22.765625 C 68.769531 -22.765625 75.617188 -25.617188 80.765625 -31.328125 C 85.910156 -37.035156 88.484375 -44.578125 88.484375 -53.953125 C 88.484375 -63.421875 85.910156 -70.984375 80.765625 -76.640625 C 75.617188 -82.296875 68.769531 -85.125 60.21875 -85.125 C 51.550781 -85.125 44.644531 -82.320312 39.5 -76.71875 C 34.351562 -71.113281 31.78125 -63.523438 31.78125 -53.953125 C 31.78125 -44.472656 34.351562 -36.90625 39.5 -31.25 C 44.644531 -25.59375 51.550781 -22.765625 60.21875 -22.765625 Z M 60.21875 -22.765625 "/></g></g></g><g fill="#0984e3" fill-opacity="1"><g transform="translate(640.113538, 110.068696)"><g><path d="M 91.234375 -72.75 C 91.234375 -66.53125 89.804688 -60.847656 86.953125 -55.703125 C 84.109375 -50.554688 79.726562 -46.40625 73.8125 -43.25 C 67.90625 -40.09375 60.570312 -38.515625 51.8125 -38.515625 L 35.609375 -38.515625 L 35.609375 0 L 9.46875 0 L 9.46875 -107.28125 L 51.8125 -107.28125 C 60.363281 -107.28125 67.59375 -105.800781 73.5 -102.84375 C 79.414062 -99.894531 83.847656 -95.820312 86.796875 -90.625 C 89.753906 -85.425781 91.234375 -79.46875 91.234375 -72.75 Z M 49.828125 -59.296875 C 54.816406 -59.296875 58.53125 -60.46875 60.96875 -62.8125 C 63.414062 -65.15625 64.640625 -68.46875 64.640625 -72.75 C 64.640625 -77.03125 63.414062 -80.335938 60.96875 -82.671875 C 58.53125 -85.015625 54.816406 -86.1875 49.828125 -86.1875 L 35.609375 -86.1875 L 35.609375 -59.296875 Z M 49.828125 -59.296875 "/></g></g></g><g fill="#333333" fill-opacity="1"><g transform="translate(-0.50907, 110.068696)"><g><path d="M 86.65625 -107.28125 L 86.65625 -86.34375 L 58.234375 -86.34375 L 58.234375 0 L 32.09375 0 L 32.09375 -86.34375 L 3.671875 -86.34375 L 3.671875 -107.28125 Z M 86.65625 -107.28125 "/></g></g></g></svg>